<svg width="903" height="131" viewBox="0 0 903 131" fill="none" xmlns="http://www.w3.org/2000/svg">
    <path d="M65.3223 92.3481C65.3223 91.3957 65.4646 90.505 65.7491 89.6763C66.0398 88.8413 66.4542 88.1177 66.9922 87.5054C67.5303 86.8869 68.1828 86.4014 68.9498 86.0488C69.7167 85.6901 70.5795 85.5107 71.5381 85.5107C72.2309 85.5107 72.871 85.6004 73.4586 85.7798C74.0523 85.9591 74.5842 86.2127 75.0543 86.5405C75.5305 86.8683 75.9387 87.2642 76.2789 87.728C76.619 88.1919 76.8881 88.7114 77.086 89.2866L74.4976 90.1494C74.4234 89.902 74.3059 89.6484 74.1451 89.3887C73.9843 89.1227 73.7802 88.8846 73.5328 88.6743C73.2854 88.4578 72.9947 88.2816 72.6607 88.1455C72.3329 88.0094 71.9649 87.9414 71.5567 87.9414C70.9444 87.9414 70.4187 88.0682 69.9796 88.3218C69.5466 88.5692 69.191 88.9001 68.9127 89.3145C68.6343 89.7227 68.4271 90.1896 68.2911 90.7153C68.1612 91.2349 68.0963 91.7668 68.0963 92.311V92.3853C68.0963 92.9357 68.1612 93.4738 68.2911 93.9995C68.4271 94.519 68.6343 94.9829 68.9127 95.3911C69.191 95.7993 69.5466 96.1302 69.9796 96.3838C70.4187 96.6312 70.9444 96.7549 71.5567 96.7549C71.9649 96.7549 72.3329 96.6868 72.6607 96.5508C72.9947 96.4147 73.2854 96.2415 73.5328 96.0312C73.7802 95.8148 73.9843 95.5767 74.1451 95.3169C74.3059 95.0571 74.4234 94.8035 74.4976 94.5562L77.086 95.4097C76.8881 95.9849 76.619 96.5044 76.2789 96.9683C75.9387 97.4321 75.5305 97.8311 75.0543 98.165C74.5842 98.4928 74.0523 98.7464 73.4586 98.9258C72.871 99.099 72.2309 99.1855 71.5381 99.1855C70.5795 99.1855 69.7167 99.0093 68.9498 98.6567C68.1828 98.3042 67.5303 97.8187 66.9922 97.2002C66.4542 96.5817 66.0398 95.8581 65.7491 95.0293C65.4646 94.2005 65.3223 93.3068 65.3223 92.3481ZM83.1163 88.8691C83.8523 88.8691 84.5202 89.0021 85.1202 89.2681C85.7201 89.5278 86.2335 89.8896 86.6602 90.3535C87.087 90.8174 87.4148 91.3647 87.6436 91.9956C87.8786 92.6265 87.9962 93.3068 87.9962 94.0366C87.9962 94.7726 87.8786 95.4561 87.6436 96.0869C87.4086 96.7116 87.0777 97.2528 86.6509 97.7104C86.2242 98.1681 85.7108 98.5299 85.1109 98.7959C84.511 99.0557 83.8461 99.1855 83.1163 99.1855C82.3803 99.1855 81.7123 99.0557 81.1124 98.7959C80.5124 98.5299 79.9991 98.1681 79.5723 97.7104C79.1456 97.2528 78.8147 96.7116 78.5797 96.0869C78.3446 95.4561 78.2271 94.7726 78.2271 94.0366C78.2271 93.3068 78.3415 92.6265 78.5704 91.9956C78.8054 91.3647 79.1363 90.8174 79.563 90.3535C79.9898 89.8896 80.5032 89.5278 81.1031 89.2681C81.7092 89.0021 82.3803 88.8691 83.1163 88.8691ZM83.1163 96.8105C83.4812 96.8105 83.8028 96.7425 84.0811 96.6064C84.3656 96.4704 84.6037 96.2817 84.7955 96.0405C84.9872 95.7993 85.1325 95.5117 85.2315 95.1777C85.3305 94.8376 85.3799 94.4665 85.3799 94.0645V93.9995C85.3799 93.5975 85.3305 93.2295 85.2315 92.8955C85.1325 92.5553 84.9872 92.2646 84.7955 92.0234C84.6037 91.776 84.3656 91.5843 84.0811 91.4482C83.8028 91.3122 83.4812 91.2441 83.1163 91.2441C82.7514 91.2441 82.4267 91.3122 82.1422 91.4482C81.8638 91.5843 81.6288 91.776 81.4371 92.0234C81.2453 92.2646 81.1 92.5553 81.001 92.8955C80.9021 93.2295 80.8526 93.5975 80.8526 93.9995V94.0645C80.8526 94.4665 80.9021 94.8376 81.001 95.1777C81.1 95.5117 81.2453 95.7993 81.4371 96.0405C81.6288 96.2817 81.8638 96.4704 82.1422 96.6064C82.4267 96.7425 82.7514 96.8105 83.1163 96.8105ZM89.6939 89.064H92.2545V89.9175C92.3905 89.7814 92.5421 89.6515 92.709 89.5278C92.8822 89.3979 93.0709 89.2866 93.275 89.1938C93.4791 89.0949 93.7048 89.0176 93.9522 88.9619C94.2058 88.9001 94.4841 88.8691 94.7872 88.8691C95.3253 88.8691 95.8077 88.9588 96.2344 89.1382C96.6612 89.3114 97.0199 89.5526 97.3106 89.8618C97.6075 90.1711 97.8332 90.5329 97.9879 90.9473C98.1425 91.3617 98.2198 91.8101 98.2198 92.2925V99H95.6592V93.2202C95.6592 92.8677 95.619 92.5708 95.5386 92.3296C95.4582 92.0822 95.3469 91.8843 95.2047 91.7358C95.0686 91.5812 94.9047 91.4699 94.713 91.4019C94.5274 91.3276 94.3233 91.2905 94.1006 91.2905C93.8409 91.2905 93.5966 91.3369 93.3677 91.4297C93.1451 91.5225 92.9503 91.6647 92.7833 91.8564C92.6163 92.042 92.4864 92.277 92.3936 92.5615C92.3008 92.846 92.2545 93.18 92.2545 93.5635V99H89.6939V89.064ZM101.068 95.8271C101.433 96.1549 101.869 96.4364 102.376 96.6714C102.883 96.9064 103.397 97.0239 103.916 97.0239C104.293 97.0239 104.59 96.9528 104.807 96.8105C105.023 96.6621 105.131 96.4735 105.131 96.2446C105.131 95.855 104.714 95.5519 103.879 95.3354L103.155 95.1406C102.797 95.054 102.435 94.9365 102.07 94.7881C101.705 94.6335 101.368 94.4325 101.059 94.1851C100.756 93.9377 100.508 93.6377 100.316 93.2852C100.131 92.9264 100.038 92.4873 100.038 91.9678C100.038 91.5534 100.128 91.1606 100.307 90.7896C100.493 90.4123 100.753 90.0814 101.086 89.7969C101.427 89.5124 101.838 89.2866 102.32 89.1196C102.803 88.9526 103.341 88.8691 103.935 88.8691C104.782 88.8691 105.537 89.0021 106.198 89.2681C106.866 89.534 107.392 89.834 107.775 90.168L106.44 91.875C106.124 91.6462 105.75 91.4513 105.317 91.2905C104.89 91.1235 104.46 91.04 104.027 91.04C103.625 91.04 103.313 91.1143 103.09 91.2627C102.868 91.4049 102.756 91.5781 102.756 91.7822C102.756 91.9987 102.852 92.175 103.044 92.311C103.242 92.4409 103.526 92.5553 103.898 92.6543L104.974 92.9604C106 93.2511 106.736 93.6439 107.182 94.1387C107.627 94.6335 107.85 95.2581 107.85 96.0127C107.85 96.4333 107.763 96.8353 107.59 97.2188C107.417 97.596 107.163 97.9331 106.829 98.23C106.495 98.5269 106.081 98.7619 105.586 98.9351C105.091 99.1021 104.528 99.1855 103.898 99.1855C103.415 99.1855 102.961 99.1423 102.534 99.0557C102.113 98.9691 101.72 98.8516 101.356 98.7031C100.997 98.5485 100.672 98.3753 100.381 98.1836C100.091 97.9919 99.8433 97.8001 99.6392 97.6084L101.068 95.8271ZM117.962 99H115.401V98.1465C115.259 98.2826 115.105 98.4155 114.938 98.5454C114.771 98.6691 114.585 98.7804 114.381 98.8794C114.177 98.9722 113.948 99.0464 113.694 99.1021C113.447 99.1577 113.172 99.1855 112.869 99.1855C112.331 99.1855 111.848 99.099 111.421 98.9258C110.995 98.7464 110.633 98.5052 110.336 98.2021C110.045 97.8929 109.823 97.5311 109.668 97.1167C109.513 96.7023 109.436 96.2539 109.436 95.7715V89.064H111.997V94.8345C111.997 95.187 112.034 95.487 112.108 95.7344C112.188 95.9818 112.297 96.1828 112.433 96.3374C112.575 96.4858 112.742 96.5972 112.934 96.6714C113.125 96.7394 113.333 96.7734 113.555 96.7734C113.815 96.7734 114.056 96.7271 114.279 96.6343C114.508 96.5415 114.706 96.4023 114.873 96.2168C115.04 96.0251 115.169 95.7869 115.262 95.5024C115.355 95.2179 115.401 94.884 115.401 94.5005V89.064H117.962V99ZM128.557 99H125.987V93.2202C125.987 92.8677 125.947 92.5708 125.866 92.3296C125.792 92.0822 125.687 91.8843 125.551 91.7358C125.415 91.5812 125.257 91.473 125.078 91.4111C124.898 91.3431 124.704 91.3091 124.493 91.3091C124.246 91.3091 124.014 91.3524 123.797 91.439C123.587 91.5256 123.402 91.6616 123.241 91.8472C123.086 92.0327 122.962 92.2708 122.87 92.5615C122.783 92.846 122.74 93.1862 122.74 93.582V99H120.179V89.064H122.74V89.936C123.068 89.5711 123.448 89.3021 123.881 89.1289C124.32 88.9557 124.79 88.8691 125.291 88.8691C125.804 88.8691 126.284 88.9743 126.729 89.1846C127.181 89.3949 127.555 89.7412 127.852 90.2236C128.025 89.9762 128.223 89.766 128.445 89.5928C128.674 89.4196 128.919 89.2804 129.178 89.1753C129.438 89.0701 129.707 88.9928 129.985 88.9434C130.27 88.8939 130.561 88.8691 130.857 88.8691C131.414 88.8691 131.909 88.9619 132.342 89.1475C132.781 89.3268 133.152 89.5711 133.455 89.8804C133.758 90.1896 133.99 90.5452 134.151 90.9473C134.312 91.3493 134.392 91.7729 134.392 92.2183V99H131.804V93.2202C131.804 92.8677 131.764 92.5708 131.683 92.3296C131.609 92.0822 131.504 91.8843 131.368 91.7358C131.232 91.5812 131.071 91.473 130.885 91.4111C130.706 91.3431 130.511 91.3091 130.301 91.3091C130.053 91.3091 129.825 91.3524 129.614 91.439C129.404 91.5256 129.218 91.6616 129.058 91.8472C128.903 92.0327 128.779 92.2708 128.687 92.5615C128.6 92.846 128.557 93.1862 128.557 93.582V99ZM138.669 94.918C138.712 95.2148 138.805 95.487 138.947 95.7344C139.096 95.9818 139.281 96.1951 139.504 96.3745C139.727 96.5477 139.983 96.6838 140.274 96.7827C140.565 96.8817 140.874 96.9312 141.202 96.9312C141.579 96.9312 141.987 96.86 142.426 96.7178C142.865 96.5693 143.267 96.356 143.632 96.0776L144.866 97.8774C144.402 98.2671 143.833 98.5825 143.159 98.8237C142.485 99.0649 141.768 99.1855 141.007 99.1855C140.32 99.1855 139.674 99.068 139.068 98.833C138.462 98.598 137.93 98.2578 137.472 97.8125C137.021 97.3672 136.662 96.826 136.396 96.189C136.136 95.5519 136.006 94.8345 136.006 94.0366C136.006 93.3068 136.121 92.6265 136.35 91.9956C136.585 91.3647 136.909 90.8174 137.324 90.3535C137.744 89.8896 138.245 89.5278 138.827 89.2681C139.408 89.0021 140.051 88.8691 140.756 88.8691C141.412 88.8691 142.021 88.9897 142.584 89.231C143.147 89.466 143.635 89.8 144.05 90.2329C144.464 90.6597 144.789 91.173 145.024 91.7729C145.259 92.3729 145.377 93.0347 145.377 93.7583V94.918H138.669ZM140.747 91.0957C140.197 91.0957 139.73 91.2812 139.346 91.6523C138.969 92.0173 138.749 92.4595 138.688 92.979H142.695C142.683 92.4533 142.491 92.008 142.12 91.6431C141.749 91.2782 141.291 91.0957 140.747 91.0957ZM152.594 91.5503H152.325C151.96 91.5503 151.611 91.5874 151.277 91.6616C150.949 91.7358 150.658 91.8719 150.405 92.0698C150.151 92.2616 149.947 92.5275 149.793 92.8677C149.644 93.2078 149.57 93.6439 149.57 94.1758V99H147.009V89.064H149.57V90.1865C149.675 90.0195 149.811 89.8587 149.978 89.7041C150.145 89.5495 150.34 89.4134 150.563 89.2959C150.785 89.1722 151.036 89.0732 151.314 88.999C151.592 88.9248 151.892 88.8877 152.214 88.8877H152.594V91.5503ZM79.7208 120.827C80.0857 121.155 80.5217 121.436 81.0289 121.671C81.536 121.906 82.0494 122.024 82.5689 122.024C82.9462 122.024 83.2431 121.953 83.4595 121.811C83.676 121.662 83.7842 121.473 83.7842 121.245C83.7842 120.855 83.3668 120.552 82.5318 120.335L81.8082 120.141C81.4494 120.054 81.0876 119.937 80.7227 119.788C80.3578 119.633 80.0207 119.432 79.7115 119.185C79.4084 118.938 79.161 118.638 78.9693 118.285C78.7838 117.926 78.691 117.487 78.691 116.968C78.691 116.553 78.7807 116.161 78.96 115.79C79.1456 115.412 79.4053 115.081 79.7393 114.797C80.0795 114.512 80.4908 114.287 80.9732 114.12C81.4556 113.953 81.9937 113.869 82.5875 113.869C83.4348 113.869 84.1894 114.002 84.8511 114.268C85.5191 114.534 86.0448 114.834 86.4283 115.168L85.0923 116.875C84.7769 116.646 84.4027 116.451 83.9698 116.291C83.543 116.124 83.1132 116.04 82.6802 116.04C82.2782 116.04 81.9659 116.114 81.7432 116.263C81.5206 116.405 81.4092 116.578 81.4092 116.782C81.4092 116.999 81.5051 117.175 81.6968 117.311C81.8948 117.441 82.1793 117.555 82.5504 117.654L83.6265 117.96C84.6532 118.251 85.3892 118.644 85.8345 119.139C86.2798 119.633 86.5025 120.258 86.5025 121.013C86.5025 121.433 86.4159 121.835 86.2427 122.219C86.0696 122.596 85.816 122.933 85.482 123.23C85.148 123.527 84.7336 123.762 84.2388 123.935C83.744 124.102 83.1812 124.186 82.5504 124.186C82.0679 124.186 81.6133 124.142 81.1866 124.056C80.766 123.969 80.3733 123.852 80.0084 123.703C79.6496 123.549 79.3249 123.375 79.0342 123.184C78.7436 122.992 78.4962 122.8 78.2921 122.608L79.7208 120.827ZM90.3062 119.918C90.3495 120.215 90.4423 120.487 90.5845 120.734C90.733 120.982 90.9185 121.195 91.1412 121.375C91.3638 121.548 91.6205 121.684 91.9112 121.783C92.2019 121.882 92.5111 121.931 92.8389 121.931C93.2162 121.931 93.6244 121.86 94.0635 121.718C94.5027 121.569 94.9047 121.356 95.2696 121.078L96.5035 122.877C96.0396 123.267 95.4706 123.583 94.7964 123.824C94.1223 124.065 93.4048 124.186 92.6441 124.186C91.9576 124.186 91.3113 124.068 90.7051 123.833C90.099 123.598 89.5671 123.258 89.1094 122.812C88.6579 122.367 88.2992 121.826 88.0333 121.189C87.7735 120.552 87.6436 119.834 87.6436 119.037C87.6436 118.307 87.758 117.626 87.9869 116.996C88.2219 116.365 88.5466 115.817 88.961 115.354C89.3816 114.89 89.8825 114.528 90.4639 114.268C91.0453 114.002 91.6885 113.869 92.3936 113.869C93.0492 113.869 93.6584 113.99 94.2213 114.231C94.7841 114.466 95.2727 114.8 95.6871 115.233C96.1015 115.66 96.4262 116.173 96.6612 116.773C96.8962 117.373 97.0137 118.035 97.0137 118.758V119.918H90.3062ZM92.3843 116.096C91.8339 116.096 91.3669 116.281 90.9835 116.652C90.6062 117.017 90.3866 117.459 90.3248 117.979H94.3326C94.3202 117.453 94.1285 117.008 93.7574 116.643C93.3863 116.278 92.9286 116.096 92.3843 116.096ZM104.232 116.55H103.962C103.598 116.55 103.248 116.587 102.914 116.662C102.586 116.736 102.296 116.872 102.042 117.07C101.788 117.262 101.584 117.528 101.43 117.868C101.281 118.208 101.207 118.644 101.207 119.176V124H98.6465V114.064H101.207V115.187C101.312 115.02 101.448 114.859 101.615 114.704C101.782 114.549 101.977 114.413 102.2 114.296C102.422 114.172 102.673 114.073 102.951 113.999C103.23 113.925 103.53 113.888 103.851 113.888H104.232V116.55ZM107.933 124L104.89 114.064H107.748L109.529 120.901L111.357 114.064H114.168L111.143 124H107.933ZM117.999 124H115.439V114.064H117.999V124ZM115.169 111.457C115.169 111.247 115.21 111.049 115.29 110.863C115.371 110.672 115.479 110.508 115.615 110.372C115.757 110.229 115.921 110.118 116.107 110.038C116.292 109.957 116.493 109.917 116.71 109.917C116.92 109.917 117.118 109.957 117.303 110.038C117.495 110.118 117.659 110.229 117.795 110.372C117.937 110.508 118.049 110.672 118.129 110.863C118.209 111.049 118.25 111.247 118.25 111.457C118.25 111.674 118.209 111.875 118.129 112.06C118.049 112.246 117.937 112.41 117.795 112.552C117.659 112.688 117.495 112.796 117.303 112.876C117.118 112.957 116.92 112.997 116.71 112.997C116.493 112.997 116.292 112.957 116.107 112.876C115.921 112.796 115.757 112.688 115.615 112.552C115.479 112.41 115.371 112.246 115.29 112.06C115.21 111.875 115.169 111.674 115.169 111.457ZM122.332 119.083C122.332 119.405 122.375 119.729 122.461 120.057C122.548 120.379 122.681 120.669 122.86 120.929C123.04 121.189 123.269 121.402 123.547 121.569C123.831 121.73 124.169 121.811 124.558 121.811C124.812 121.811 125.041 121.777 125.245 121.708C125.455 121.64 125.641 121.548 125.801 121.43C125.968 121.306 126.114 121.164 126.237 121.003C126.367 120.836 126.479 120.657 126.571 120.465L128.816 121.625C128.656 122.015 128.433 122.367 128.148 122.683C127.87 122.998 127.545 123.267 127.174 123.49C126.803 123.712 126.392 123.882 125.94 124C125.489 124.124 125.01 124.186 124.503 124.186C123.804 124.186 123.16 124.056 122.573 123.796C121.985 123.53 121.478 123.168 121.051 122.71C120.625 122.253 120.291 121.712 120.049 121.087C119.808 120.456 119.688 119.773 119.688 119.037C119.688 118.307 119.808 117.626 120.049 116.996C120.291 116.365 120.625 115.817 121.051 115.354C121.478 114.89 121.985 114.528 122.573 114.268C123.16 114.002 123.804 113.869 124.503 113.869C125.01 113.869 125.489 113.931 125.94 114.055C126.392 114.172 126.803 114.345 127.174 114.574C127.545 114.797 127.87 115.066 128.148 115.381C128.433 115.697 128.656 116.049 128.816 116.439L126.571 117.599C126.479 117.407 126.367 117.231 126.237 117.07C126.114 116.903 125.968 116.761 125.801 116.643C125.641 116.519 125.455 116.424 125.245 116.355C125.041 116.281 124.812 116.244 124.558 116.244C124.169 116.244 123.831 116.328 123.547 116.495C123.269 116.655 123.04 116.869 122.86 117.135C122.681 117.395 122.548 117.688 122.461 118.016C122.375 118.344 122.332 118.672 122.332 119V119.083ZM132.537 119.918C132.58 120.215 132.673 120.487 132.815 120.734C132.963 120.982 133.149 121.195 133.372 121.375C133.594 121.548 133.851 121.684 134.142 121.783C134.432 121.882 134.742 121.931 135.069 121.931C135.447 121.931 135.855 121.86 136.294 121.718C136.733 121.569 137.135 121.356 137.5 121.078L138.734 122.877C138.27 123.267 137.701 123.583 137.027 123.824C136.353 124.065 135.635 124.186 134.875 124.186C134.188 124.186 133.542 124.068 132.936 123.833C132.329 123.598 131.798 123.258 131.34 122.812C130.888 122.367 130.53 121.826 130.264 121.189C130.004 120.552 129.874 119.834 129.874 119.037C129.874 118.307 129.989 117.626 130.217 116.996C130.452 116.365 130.777 115.817 131.191 115.354C131.612 114.89 132.113 114.528 132.694 114.268C133.276 114.002 133.919 113.869 134.624 113.869C135.28 113.869 135.889 113.99 136.452 114.231C137.015 114.466 137.503 114.8 137.918 115.233C138.332 115.66 138.657 116.173 138.892 116.773C139.127 117.373 139.244 118.035 139.244 118.758V119.918H132.537ZM134.615 116.096C134.064 116.096 133.597 116.281 133.214 116.652C132.837 117.017 132.617 117.459 132.555 117.979H136.563C136.551 117.453 136.359 117.008 135.988 116.643C135.617 116.278 135.159 116.096 134.615 116.096Z" fill="black"/>
    <path d="M278.071 85.6963H283.22C284.011 85.6963 284.71 85.8107 285.316 86.0396C285.923 86.2684 286.43 86.5745 286.838 86.958C287.246 87.3415 287.555 87.7837 287.766 88.2847C287.976 88.7795 288.081 89.299 288.081 89.8433C288.081 90.2824 288.013 90.6999 287.877 91.0957C287.747 91.4854 287.565 91.841 287.33 92.1626C287.101 92.478 286.829 92.7533 286.513 92.9883C286.198 93.2171 285.858 93.3965 285.493 93.5264L288.406 99H285.307L282.895 94.2129H280.761V99H278.071V85.6963ZM285.27 89.936C285.27 89.6701 285.221 89.4227 285.122 89.1938C285.029 88.965 284.884 88.7671 284.686 88.6001C284.494 88.4331 284.253 88.3032 283.962 88.2104C283.671 88.1177 283.334 88.0713 282.951 88.0713H280.761V91.8193H282.951C283.334 91.8193 283.671 91.7729 283.962 91.6802C284.253 91.5812 284.494 91.4482 284.686 91.2812C284.884 91.1081 285.029 90.9071 285.122 90.6782C285.221 90.4494 285.27 90.202 285.27 89.936ZM291.764 94.918C291.808 95.2148 291.9 95.487 292.043 95.7344C292.191 95.9818 292.377 96.1951 292.599 96.3745C292.822 96.5477 293.079 96.6838 293.369 96.7827C293.66 96.8817 293.969 96.9312 294.297 96.9312C294.674 96.9312 295.082 96.86 295.522 96.7178C295.961 96.5693 296.363 96.356 296.728 96.0776L297.961 97.8774C297.498 98.2671 296.929 98.5825 296.254 98.8237C295.58 99.0649 294.863 99.1855 294.102 99.1855C293.416 99.1855 292.769 99.068 292.163 98.833C291.557 98.598 291.025 98.2578 290.567 97.8125C290.116 97.3672 289.757 96.826 289.491 96.189C289.232 95.5519 289.102 94.8345 289.102 94.0366C289.102 93.3068 289.216 92.6265 289.445 91.9956C289.68 91.3647 290.005 90.8174 290.419 90.3535C290.84 89.8896 291.341 89.5278 291.922 89.2681C292.503 89.0021 293.147 88.8691 293.852 88.8691C294.507 88.8691 295.116 88.9897 295.679 89.231C296.242 89.466 296.731 89.8 297.145 90.2329C297.559 90.6597 297.884 91.173 298.119 91.7729C298.354 92.3729 298.472 93.0347 298.472 93.7583V94.918H291.764ZM293.842 91.0957C293.292 91.0957 292.825 91.2812 292.441 91.6523C292.064 92.0173 291.845 92.4595 291.783 92.979H295.791C295.778 92.4533 295.586 92.008 295.215 91.6431C294.844 91.2782 294.387 91.0957 293.842 91.0957ZM303.537 89.064H305.439V91.2905H303.537V99H300.977V91.2905H299.399V89.064H300.977V87.8486C300.977 87.4157 301.051 87.0415 301.199 86.7261C301.348 86.4045 301.552 86.1416 301.812 85.9375C302.078 85.7272 302.393 85.5726 302.758 85.4736C303.129 85.3685 303.537 85.3159 303.982 85.3159C304.205 85.3159 304.422 85.3221 304.632 85.3345C304.842 85.3468 305.037 85.3592 305.216 85.3716C305.396 85.384 305.553 85.3994 305.69 85.418C305.832 85.4365 305.94 85.4489 306.014 85.4551L305.801 87.6353C305.727 87.6229 305.634 87.6105 305.523 87.5981C305.417 87.5858 305.306 87.5765 305.189 87.5703C305.071 87.5579 304.957 87.5518 304.845 87.5518C304.734 87.5456 304.635 87.5425 304.548 87.5425C304.183 87.5425 303.924 87.6136 303.769 87.7559C303.614 87.8919 303.537 88.0682 303.537 88.2847V89.064ZM309.057 94.918C309.1 95.2148 309.193 95.487 309.336 95.7344C309.484 95.9818 309.669 96.1951 309.892 96.3745C310.115 96.5477 310.371 96.6838 310.662 96.7827C310.953 96.8817 311.262 96.9312 311.59 96.9312C311.967 96.9312 312.375 96.86 312.815 96.7178C313.254 96.5693 313.656 96.356 314.021 96.0776L315.254 97.8774C314.791 98.2671 314.222 98.5825 313.547 98.8237C312.873 99.0649 312.156 99.1855 311.395 99.1855C310.709 99.1855 310.062 99.068 309.456 98.833C308.85 98.598 308.318 98.2578 307.86 97.8125C307.409 97.3672 307.05 96.826 306.784 96.189C306.524 95.5519 306.395 94.8345 306.395 94.0366C306.395 93.3068 306.509 92.6265 306.738 91.9956C306.973 91.3647 307.298 90.8174 307.712 90.3535C308.133 89.8896 308.634 89.5278 309.215 89.2681C309.796 89.0021 310.44 88.8691 311.145 88.8691C311.8 88.8691 312.409 88.9897 312.972 89.231C313.535 89.466 314.024 89.8 314.438 90.2329C314.852 90.6597 315.177 91.173 315.412 91.7729C315.647 92.3729 315.765 93.0347 315.765 93.7583V94.918H309.057ZM311.135 91.0957C310.585 91.0957 310.118 91.2812 309.734 91.6523C309.357 92.0173 309.138 92.4595 309.076 92.979H313.084C313.071 92.4533 312.879 92.008 312.508 91.6431C312.137 91.2782 311.68 91.0957 311.135 91.0957ZM322.982 91.5503H322.713C322.349 91.5503 321.999 91.5874 321.665 91.6616C321.337 91.7358 321.047 91.8719 320.793 92.0698C320.539 92.2616 320.335 92.5275 320.181 92.8677C320.032 93.2078 319.958 93.6439 319.958 94.1758V99H317.398V89.064H319.958V90.1865C320.063 90.0195 320.199 89.8587 320.366 89.7041C320.533 89.5495 320.728 89.4134 320.951 89.2959C321.173 89.1722 321.424 89.0732 321.702 88.999C321.981 88.9248 322.28 88.8877 322.602 88.8877H322.982V91.5503ZM330.163 91.5503H329.894C329.529 91.5503 329.18 91.5874 328.846 91.6616C328.518 91.7358 328.227 91.8719 327.974 92.0698C327.72 92.2616 327.516 92.5275 327.361 92.8677C327.213 93.2078 327.139 93.6439 327.139 94.1758V99H324.578V89.064H327.139V90.1865C327.244 90.0195 327.38 89.8587 327.547 89.7041C327.714 89.5495 327.909 89.4134 328.131 89.2959C328.354 89.1722 328.605 89.0732 328.883 88.999C329.161 88.9248 329.461 88.8877 329.783 88.8877H330.163V91.5503ZM334.969 94.9644C334.653 95.0138 334.4 95.1252 334.208 95.2983C334.016 95.4653 333.92 95.6942 333.92 95.9849C333.92 96.3065 334.038 96.5848 334.273 96.8198C334.508 97.0487 334.854 97.1631 335.312 97.1631C335.794 97.1631 336.175 97.0239 336.453 96.7456C336.732 96.4673 336.871 96.0993 336.871 95.6416V94.6396L334.969 94.9644ZM337.288 98.063C337.183 98.1805 337.053 98.3073 336.898 98.4434C336.75 98.5732 336.571 98.6938 336.36 98.8052C336.156 98.9103 335.915 99 335.637 99.0742C335.358 99.1484 335.046 99.1855 334.7 99.1855C334.205 99.1855 333.747 99.1082 333.327 98.9536C332.912 98.7928 332.547 98.5701 332.232 98.2856C331.917 98.0011 331.669 97.6733 331.49 97.3022C331.31 96.925 331.221 96.5168 331.221 96.0776C331.221 95.2798 331.468 94.6273 331.963 94.1201C332.458 93.613 333.141 93.2944 334.013 93.1646L336.871 92.7471V92.5615C336.871 92.1162 336.735 91.7637 336.462 91.5039C336.19 91.2441 335.748 91.1143 335.136 91.1143C334.882 91.1143 334.626 91.1452 334.366 91.207C334.106 91.2627 333.856 91.3276 333.614 91.4019C333.379 91.4761 333.16 91.5627 332.956 91.6616C332.752 91.7544 332.572 91.8379 332.418 91.9121L331.416 89.9546C331.985 89.6392 332.615 89.3794 333.308 89.1753C334.007 88.9712 334.731 88.8691 335.479 88.8691C335.937 88.8691 336.398 88.9186 336.861 89.0176C337.331 89.1104 337.755 89.2835 338.132 89.5371C338.516 89.7907 338.828 90.137 339.069 90.5762C339.311 91.0091 339.431 91.5627 339.431 92.2368V96.3188C339.431 96.6095 339.505 96.826 339.654 96.9683C339.808 97.1043 340.019 97.2311 340.285 97.3486L339.125 99.1855C338.655 99.1361 338.278 99.0155 337.993 98.8237C337.709 98.6258 337.474 98.3722 337.288 98.063ZM341.537 85.6963H344.098V96.3003C344.098 96.5106 344.156 96.6714 344.274 96.7827C344.398 96.894 344.593 96.9497 344.858 96.9497C344.982 96.9497 345.087 96.9435 345.174 96.9312C345.267 96.9126 345.384 96.8879 345.526 96.8569L345.731 99.0371C345.557 99.0618 345.372 99.0866 345.174 99.1113C345.007 99.1299 344.812 99.1453 344.589 99.1577C344.373 99.1763 344.147 99.1855 343.912 99.1855C343.547 99.1855 343.219 99.1392 342.929 99.0464C342.638 98.9536 342.388 98.8175 342.177 98.6382C341.973 98.4526 341.815 98.2238 341.704 97.9517C341.593 97.6795 341.537 97.3641 341.537 97.0054V85.6963ZM290.233 127.136H287.673V114.064H290.233V114.917C290.512 114.627 290.855 114.379 291.263 114.175C291.671 113.971 292.166 113.869 292.748 113.869C293.403 113.869 293.997 114.002 294.529 114.268C295.067 114.528 295.528 114.89 295.911 115.354C296.295 115.811 296.592 116.355 296.802 116.986C297.012 117.617 297.117 118.301 297.117 119.037C297.117 119.773 297.009 120.456 296.793 121.087C296.576 121.718 296.273 122.262 295.883 122.72C295.494 123.177 295.027 123.536 294.482 123.796C293.938 124.056 293.338 124.186 292.683 124.186C292.392 124.186 292.126 124.158 291.885 124.102C291.65 124.053 291.433 123.981 291.235 123.889C291.037 123.796 290.855 123.688 290.688 123.564C290.521 123.434 290.37 123.295 290.233 123.146V127.136ZM290.159 119.955C290.159 120.221 290.206 120.468 290.298 120.697C290.397 120.92 290.537 121.115 290.716 121.282C290.895 121.449 291.109 121.579 291.356 121.671C291.61 121.764 291.894 121.811 292.21 121.811C292.574 121.811 292.896 121.746 293.174 121.616C293.459 121.48 293.697 121.291 293.889 121.05C294.08 120.809 294.226 120.524 294.325 120.196C294.424 119.862 294.473 119.497 294.473 119.102V118.981C294.473 118.585 294.424 118.22 294.325 117.886C294.226 117.552 294.08 117.265 293.889 117.023C293.697 116.776 293.459 116.584 293.174 116.448C292.896 116.312 292.574 116.244 292.21 116.244C291.894 116.244 291.61 116.291 291.356 116.383C291.109 116.476 290.895 116.606 290.716 116.773C290.537 116.94 290.397 117.138 290.298 117.367C290.206 117.596 290.159 117.843 290.159 118.109V119.955ZM303.194 113.869C303.93 113.869 304.598 114.002 305.198 114.268C305.798 114.528 306.311 114.89 306.738 115.354C307.165 115.817 307.492 116.365 307.721 116.996C307.956 117.626 308.074 118.307 308.074 119.037C308.074 119.773 307.956 120.456 307.721 121.087C307.486 121.712 307.155 122.253 306.729 122.71C306.302 123.168 305.788 123.53 305.189 123.796C304.589 124.056 303.924 124.186 303.194 124.186C302.458 124.186 301.79 124.056 301.19 123.796C300.59 123.53 300.077 123.168 299.65 122.71C299.223 122.253 298.892 121.712 298.657 121.087C298.422 120.456 298.305 119.773 298.305 119.037C298.305 118.307 298.419 117.626 298.648 116.996C298.883 116.365 299.214 115.817 299.641 115.354C300.067 114.89 300.581 114.528 301.181 114.268C301.787 114.002 302.458 113.869 303.194 113.869ZM303.194 121.811C303.559 121.811 303.88 121.743 304.159 121.606C304.443 121.47 304.681 121.282 304.873 121.041C305.065 120.799 305.21 120.512 305.309 120.178C305.408 119.838 305.458 119.466 305.458 119.064V119C305.458 118.597 305.408 118.229 305.309 117.896C305.21 117.555 305.065 117.265 304.873 117.023C304.681 116.776 304.443 116.584 304.159 116.448C303.88 116.312 303.559 116.244 303.194 116.244C302.829 116.244 302.504 116.312 302.22 116.448C301.941 116.584 301.706 116.776 301.515 117.023C301.323 117.265 301.178 117.555 301.079 117.896C300.98 118.229 300.93 118.597 300.93 119V119.064C300.93 119.466 300.98 119.838 301.079 120.178C301.178 120.512 301.323 120.799 301.515 121.041C301.706 121.282 301.941 121.47 302.22 121.606C302.504 121.743 302.829 121.811 303.194 121.811ZM315.357 116.55H315.087C314.723 116.55 314.373 116.587 314.039 116.662C313.711 116.736 313.421 116.872 313.167 117.07C312.913 117.262 312.709 117.528 312.555 117.868C312.406 118.208 312.332 118.644 312.332 119.176V124H309.772V114.064H312.332V115.187C312.437 115.02 312.573 114.859 312.74 114.704C312.907 114.549 313.102 114.413 313.325 114.296C313.547 114.172 313.798 114.073 314.076 113.999C314.355 113.925 314.655 113.888 314.976 113.888H315.357V116.55ZM320.617 121.041C320.617 121.158 320.632 121.269 320.663 121.375C320.694 121.48 320.747 121.572 320.821 121.653C320.901 121.727 321.013 121.786 321.155 121.829C321.297 121.872 321.48 121.894 321.702 121.894C321.795 121.894 321.9 121.891 322.018 121.885C322.135 121.872 322.253 121.86 322.37 121.848C322.488 121.835 322.596 121.82 322.695 121.801C322.8 121.783 322.887 121.767 322.955 121.755L323.187 124.019C322.945 124.049 322.695 124.077 322.435 124.102C322.212 124.127 321.965 124.145 321.693 124.158C321.421 124.176 321.146 124.186 320.867 124.186C319.983 124.186 319.293 123.985 318.798 123.583C318.304 123.181 318.056 122.54 318.056 121.662V116.291H316.266V114.064H318.056V111.253L320.617 110.566V114.064H323.224V116.291H320.617V121.041ZM328.048 119.964C327.732 120.014 327.479 120.125 327.287 120.298C327.095 120.465 327 120.694 327 120.985C327 121.306 327.117 121.585 327.352 121.82C327.587 122.049 327.933 122.163 328.391 122.163C328.874 122.163 329.254 122.024 329.532 121.746C329.811 121.467 329.95 121.099 329.95 120.642V119.64L328.048 119.964ZM330.367 123.063C330.262 123.181 330.132 123.307 329.978 123.443C329.829 123.573 329.65 123.694 329.44 123.805C329.235 123.91 328.994 124 328.716 124.074C328.438 124.148 328.125 124.186 327.779 124.186C327.284 124.186 326.826 124.108 326.406 123.954C325.991 123.793 325.627 123.57 325.311 123.286C324.996 123.001 324.748 122.673 324.569 122.302C324.39 121.925 324.3 121.517 324.3 121.078C324.3 120.28 324.547 119.627 325.042 119.12C325.537 118.613 326.22 118.294 327.092 118.165L329.95 117.747V117.562C329.95 117.116 329.814 116.764 329.542 116.504C329.269 116.244 328.827 116.114 328.215 116.114C327.961 116.114 327.705 116.145 327.445 116.207C327.185 116.263 326.935 116.328 326.693 116.402C326.458 116.476 326.239 116.563 326.035 116.662C325.831 116.754 325.651 116.838 325.497 116.912L324.495 114.955C325.064 114.639 325.695 114.379 326.387 114.175C327.086 113.971 327.81 113.869 328.558 113.869C329.016 113.869 329.477 113.919 329.94 114.018C330.411 114.11 330.834 114.284 331.211 114.537C331.595 114.791 331.907 115.137 332.148 115.576C332.39 116.009 332.51 116.563 332.51 117.237V121.319C332.51 121.61 332.585 121.826 332.733 121.968C332.888 122.104 333.098 122.231 333.364 122.349L332.204 124.186C331.734 124.136 331.357 124.015 331.072 123.824C330.788 123.626 330.553 123.372 330.367 123.063ZM334.616 110.696H337.177V121.3C337.177 121.511 337.236 121.671 337.353 121.783C337.477 121.894 337.672 121.95 337.938 121.95C338.061 121.95 338.166 121.944 338.253 121.931C338.346 121.913 338.463 121.888 338.606 121.857L338.81 124.037C338.636 124.062 338.451 124.087 338.253 124.111C338.086 124.13 337.891 124.145 337.669 124.158C337.452 124.176 337.226 124.186 336.991 124.186C336.626 124.186 336.299 124.139 336.008 124.046C335.717 123.954 335.467 123.818 335.256 123.638C335.052 123.453 334.895 123.224 334.783 122.952C334.672 122.68 334.616 122.364 334.616 122.005V110.696Z" fill="black"/>
    <path d="M472.259 96.5322H467.333L466.582 99H463.724L468.075 85.6963H471.61L476.026 99H473.02L472.259 96.5322ZM468.057 94.1572H471.536L469.81 88.5352H469.773L468.057 94.1572ZM479.857 102.136H477.297V89.064H479.857V89.9175C480.136 89.6268 480.479 89.3794 480.887 89.1753C481.295 88.9712 481.79 88.8691 482.372 88.8691C483.027 88.8691 483.621 89.0021 484.153 89.2681C484.691 89.5278 485.152 89.8896 485.535 90.3535C485.919 90.8112 486.216 91.3555 486.426 91.9863C486.636 92.6172 486.741 93.3006 486.741 94.0366C486.741 94.7726 486.633 95.4561 486.417 96.0869C486.2 96.7178 485.897 97.262 485.507 97.7197C485.118 98.1774 484.651 98.5361 484.107 98.7959C483.562 99.0557 482.962 99.1855 482.307 99.1855C482.016 99.1855 481.75 99.1577 481.509 99.1021C481.274 99.0526 481.057 98.9814 480.859 98.8887C480.662 98.7959 480.479 98.6877 480.312 98.564C480.145 98.4341 479.994 98.2949 479.857 98.1465V102.136ZM479.783 94.9551C479.783 95.221 479.83 95.4684 479.922 95.6973C480.021 95.9199 480.161 96.1147 480.34 96.2817C480.519 96.4487 480.733 96.5786 480.98 96.6714C481.234 96.7642 481.518 96.8105 481.834 96.8105C482.198 96.8105 482.52 96.7456 482.798 96.6157C483.083 96.4797 483.321 96.291 483.513 96.0498C483.704 95.8086 483.85 95.5241 483.949 95.1963C484.048 94.8623 484.097 94.4974 484.097 94.1016V93.981C484.097 93.5851 484.048 93.2202 483.949 92.8862C483.85 92.5522 483.704 92.2646 483.513 92.0234C483.321 91.776 483.083 91.5843 482.798 91.4482C482.52 91.3122 482.198 91.2441 481.834 91.2441C481.518 91.2441 481.234 91.2905 480.98 91.3833C480.733 91.4761 480.519 91.606 480.34 91.7729C480.161 91.9399 480.021 92.1379 479.922 92.3667C479.83 92.5955 479.783 92.8429 479.783 93.1089V94.9551ZM491.009 102.136H488.448V89.064H491.009V89.9175C491.287 89.6268 491.63 89.3794 492.039 89.1753C492.447 88.9712 492.942 88.8691 493.523 88.8691C494.179 88.8691 494.772 89.0021 495.304 89.2681C495.842 89.5278 496.303 89.8896 496.687 90.3535C497.07 90.8112 497.367 91.3555 497.577 91.9863C497.787 92.6172 497.893 93.3006 497.893 94.0366C497.893 94.7726 497.784 95.4561 497.568 96.0869C497.351 96.7178 497.048 97.262 496.659 97.7197C496.269 98.1774 495.802 98.5361 495.258 98.7959C494.714 99.0557 494.114 99.1855 493.458 99.1855C493.167 99.1855 492.901 99.1577 492.66 99.1021C492.425 99.0526 492.209 98.9814 492.011 98.8887C491.813 98.7959 491.63 98.6877 491.463 98.564C491.296 98.4341 491.145 98.2949 491.009 98.1465V102.136ZM490.935 94.9551C490.935 95.221 490.981 95.4684 491.074 95.6973C491.173 95.9199 491.312 96.1147 491.491 96.2817C491.671 96.4487 491.884 96.5786 492.131 96.6714C492.385 96.7642 492.669 96.8105 492.985 96.8105C493.35 96.8105 493.671 96.7456 493.95 96.6157C494.234 96.4797 494.472 96.291 494.664 96.0498C494.856 95.8086 495.001 95.5241 495.1 95.1963C495.199 94.8623 495.249 94.4974 495.249 94.1016V93.981C495.249 93.5851 495.199 93.2202 495.1 92.8862C495.001 92.5522 494.856 92.2646 494.664 92.0234C494.472 91.776 494.234 91.5843 493.95 91.4482C493.671 91.3122 493.35 91.2441 492.985 91.2441C492.669 91.2441 492.385 91.2905 492.131 91.3833C491.884 91.4761 491.671 91.606 491.491 91.7729C491.312 91.9399 491.173 92.1379 491.074 92.3667C490.981 92.5955 490.935 92.8429 490.935 93.1089V94.9551ZM499.563 85.6963H502.123V96.3003C502.123 96.5106 502.182 96.6714 502.299 96.7827C502.423 96.894 502.618 96.9497 502.884 96.9497C503.008 96.9497 503.113 96.9435 503.199 96.9312C503.292 96.9126 503.41 96.8879 503.552 96.8569L503.756 99.0371C503.583 99.0618 503.397 99.0866 503.199 99.1113C503.032 99.1299 502.837 99.1453 502.615 99.1577C502.398 99.1763 502.173 99.1855 501.938 99.1855C501.573 99.1855 501.245 99.1392 500.954 99.0464C500.663 98.9536 500.413 98.8175 500.203 98.6382C499.999 98.4526 499.841 98.2238 499.73 97.9517C499.618 97.6795 499.563 97.3641 499.563 97.0054V85.6963ZM507.727 99H505.166V89.064H507.727V99ZM504.897 86.457C504.897 86.2467 504.937 86.0488 505.018 85.8633C505.098 85.6715 505.206 85.5076 505.342 85.3716C505.485 85.2293 505.648 85.118 505.834 85.0376C506.02 84.9572 506.221 84.917 506.437 84.917C506.647 84.917 506.845 84.9572 507.031 85.0376C507.223 85.118 507.386 85.2293 507.523 85.3716C507.665 85.5076 507.776 85.6715 507.857 85.8633C507.937 86.0488 507.977 86.2467 507.977 86.457C507.977 86.6735 507.937 86.8745 507.857 87.0601C507.776 87.2456 507.665 87.4095 507.523 87.5518C507.386 87.6878 507.223 87.7961 507.031 87.8765C506.845 87.9569 506.647 87.9971 506.437 87.9971C506.221 87.9971 506.02 87.9569 505.834 87.8765C505.648 87.7961 505.485 87.6878 505.342 87.5518C505.206 87.4095 505.098 87.2456 505.018 87.0601C504.937 86.8745 504.897 86.6735 504.897 86.457ZM512.059 94.083C512.059 94.4046 512.102 94.7293 512.189 95.0571C512.276 95.3787 512.409 95.6694 512.588 95.9292C512.767 96.189 512.996 96.4023 513.274 96.5693C513.559 96.7301 513.896 96.8105 514.286 96.8105C514.539 96.8105 514.768 96.7765 514.972 96.7085C515.183 96.6405 515.368 96.5477 515.529 96.4302C515.696 96.3065 515.841 96.1642 515.965 96.0034C516.095 95.8364 516.206 95.6571 516.299 95.4653L518.544 96.625C518.383 97.0146 518.161 97.3672 517.876 97.6826C517.598 97.998 517.273 98.2671 516.902 98.4897C516.531 98.7124 516.12 98.8825 515.668 99C515.217 99.1237 514.737 99.1855 514.23 99.1855C513.531 99.1855 512.888 99.0557 512.3 98.7959C511.713 98.5299 511.206 98.1681 510.779 97.7104C510.352 97.2528 510.018 96.7116 509.777 96.0869C509.536 95.4561 509.415 94.7726 509.415 94.0366C509.415 93.3068 509.536 92.6265 509.777 91.9956C510.018 91.3647 510.352 90.8174 510.779 90.3535C511.206 89.8896 511.713 89.5278 512.3 89.2681C512.888 89.0021 513.531 88.8691 514.23 88.8691C514.737 88.8691 515.217 88.931 515.668 89.0547C516.12 89.1722 516.531 89.3454 516.902 89.5742C517.273 89.7969 517.598 90.0659 517.876 90.3813C518.161 90.6968 518.383 91.0493 518.544 91.439L516.299 92.5986C516.206 92.4069 516.095 92.2306 515.965 92.0698C515.841 91.9028 515.696 91.7606 515.529 91.6431C515.368 91.5194 515.183 91.4235 514.972 91.3555C514.768 91.2812 514.539 91.2441 514.286 91.2441C513.896 91.2441 513.559 91.3276 513.274 91.4946C512.996 91.6554 512.767 91.8688 512.588 92.1348C512.409 92.3945 512.276 92.6883 512.189 93.0161C512.102 93.3439 512.059 93.6717 512.059 93.9995V94.083ZM523.331 94.9644C523.016 95.0138 522.762 95.1252 522.57 95.2983C522.379 95.4653 522.283 95.6942 522.283 95.9849C522.283 96.3065 522.4 96.5848 522.635 96.8198C522.87 97.0487 523.217 97.1631 523.674 97.1631C524.157 97.1631 524.537 97.0239 524.815 96.7456C525.094 96.4673 525.233 96.0993 525.233 95.6416V94.6396L523.331 94.9644ZM525.65 98.063C525.545 98.1805 525.415 98.3073 525.261 98.4434C525.112 98.5732 524.933 98.6938 524.723 98.8052C524.519 98.9103 524.277 99 523.999 99.0742C523.721 99.1484 523.408 99.1855 523.062 99.1855C522.567 99.1855 522.11 99.1082 521.689 98.9536C521.275 98.7928 520.91 98.5701 520.594 98.2856C520.279 98.0011 520.031 97.6733 519.852 97.3022C519.673 96.925 519.583 96.5168 519.583 96.0776C519.583 95.2798 519.83 94.6273 520.325 94.1201C520.82 93.613 521.503 93.2944 522.376 93.1646L525.233 92.7471V92.5615C525.233 92.1162 525.097 91.7637 524.825 91.5039C524.553 91.2441 524.11 91.1143 523.498 91.1143C523.245 91.1143 522.988 91.1452 522.728 91.207C522.468 91.2627 522.218 91.3276 521.977 91.4019C521.742 91.4761 521.522 91.5627 521.318 91.6616C521.114 91.7544 520.934 91.8379 520.78 91.9121L519.778 89.9546C520.347 89.6392 520.978 89.3794 521.67 89.1753C522.369 88.9712 523.093 88.8691 523.841 88.8691C524.299 88.8691 524.76 88.9186 525.224 89.0176C525.694 89.1104 526.117 89.2835 526.495 89.5371C526.878 89.7907 527.19 90.137 527.432 90.5762C527.673 91.0091 527.794 91.5627 527.794 92.2368V96.3188C527.794 96.6095 527.868 96.826 528.016 96.9683C528.171 97.1043 528.381 97.2311 528.647 97.3486L527.487 99.1855C527.017 99.1361 526.64 99.0155 526.356 98.8237C526.071 98.6258 525.836 98.3722 525.65 98.063ZM533.211 96.0405C533.211 96.158 533.227 96.2694 533.258 96.3745C533.289 96.4797 533.341 96.5724 533.416 96.6528C533.496 96.7271 533.607 96.7858 533.75 96.8291C533.892 96.8724 534.074 96.894 534.297 96.894C534.39 96.894 534.495 96.891 534.612 96.8848C534.73 96.8724 534.847 96.86 534.965 96.8477C535.082 96.8353 535.191 96.8198 535.29 96.8013C535.395 96.7827 535.481 96.7673 535.549 96.7549L535.781 99.0186C535.54 99.0495 535.29 99.0773 535.03 99.1021C534.807 99.1268 534.56 99.1453 534.288 99.1577C534.016 99.1763 533.74 99.1855 533.462 99.1855C532.578 99.1855 531.888 98.9845 531.393 98.5825C530.898 98.1805 530.651 97.5404 530.651 96.6621V91.2905H528.86V89.064H530.651V86.2529L533.211 85.5664V89.064H535.818V91.2905H533.211V96.0405ZM539.993 99H537.433V89.064H539.993V99ZM537.164 86.457C537.164 86.2467 537.204 86.0488 537.284 85.8633C537.365 85.6715 537.473 85.5076 537.609 85.3716C537.751 85.2293 537.915 85.118 538.101 85.0376C538.286 84.9572 538.487 84.917 538.704 84.917C538.914 84.917 539.112 84.9572 539.297 85.0376C539.489 85.118 539.653 85.2293 539.789 85.3716C539.931 85.5076 540.043 85.6715 540.123 85.8633C540.204 86.0488 540.244 86.2467 540.244 86.457C540.244 86.6735 540.204 86.8745 540.123 87.0601C540.043 87.2456 539.931 87.4095 539.789 87.5518C539.653 87.6878 539.489 87.7961 539.297 87.8765C539.112 87.9569 538.914 87.9971 538.704 87.9971C538.487 87.9971 538.286 87.9569 538.101 87.8765C537.915 87.7961 537.751 87.6878 537.609 87.5518C537.473 87.4095 537.365 87.2456 537.284 87.0601C537.204 86.8745 537.164 86.6735 537.164 86.457ZM546.571 88.8691C547.307 88.8691 547.975 89.0021 548.575 89.2681C549.175 89.5278 549.688 89.8896 550.115 90.3535C550.542 90.8174 550.869 91.3647 551.098 91.9956C551.333 92.6265 551.451 93.3068 551.451 94.0366C551.451 94.7726 551.333 95.4561 551.098 96.0869C550.863 96.7116 550.532 97.2528 550.106 97.7104C549.679 98.1681 549.165 98.5299 548.565 98.7959C547.966 99.0557 547.301 99.1855 546.571 99.1855C545.835 99.1855 545.167 99.0557 544.567 98.7959C543.967 98.5299 543.454 98.1681 543.027 97.7104C542.6 97.2528 542.269 96.7116 542.034 96.0869C541.799 95.4561 541.682 94.7726 541.682 94.0366C541.682 93.3068 541.796 92.6265 542.025 91.9956C542.26 91.3647 542.591 90.8174 543.018 90.3535C543.444 89.8896 543.958 89.5278 544.558 89.2681C545.164 89.0021 545.835 88.8691 546.571 88.8691ZM546.571 96.8105C546.936 96.8105 547.257 96.7425 547.536 96.6064C547.82 96.4704 548.058 96.2817 548.25 96.0405C548.442 95.7993 548.587 95.5117 548.686 95.1777C548.785 94.8376 548.835 94.4665 548.835 94.0645V93.9995C548.835 93.5975 548.785 93.2295 548.686 92.8955C548.587 92.5553 548.442 92.2646 548.25 92.0234C548.058 91.776 547.82 91.5843 547.536 91.4482C547.257 91.3122 546.936 91.2441 546.571 91.2441C546.206 91.2441 545.881 91.3122 545.597 91.4482C545.318 91.5843 545.083 91.776 544.892 92.0234C544.7 92.2646 544.555 92.5553 544.456 92.8955C544.357 93.2295 544.307 93.5975 544.307 93.9995V94.0645C544.307 94.4665 544.357 94.8376 544.456 95.1777C544.555 95.5117 544.7 95.7993 544.892 96.0405C545.083 96.2817 545.318 96.4704 545.597 96.6064C545.881 96.7425 546.206 96.8105 546.571 96.8105ZM553.148 89.064H555.709V89.9175C555.845 89.7814 555.997 89.6515 556.164 89.5278C556.337 89.3979 556.525 89.2866 556.73 89.1938C556.934 89.0949 557.159 89.0176 557.407 88.9619C557.66 88.9001 557.939 88.8691 558.242 88.8691C558.78 88.8691 559.262 88.9588 559.689 89.1382C560.116 89.3114 560.475 89.5526 560.765 89.8618C561.062 90.1711 561.288 90.5329 561.442 90.9473C561.597 91.3617 561.674 91.8101 561.674 92.2925V99H559.114V93.2202C559.114 92.8677 559.074 92.5708 558.993 92.3296C558.913 92.0822 558.801 91.8843 558.659 91.7358C558.523 91.5812 558.359 91.4699 558.168 91.4019C557.982 91.3276 557.778 91.2905 557.555 91.2905C557.295 91.2905 557.051 91.3369 556.822 91.4297C556.6 91.5225 556.405 91.6647 556.238 91.8564C556.071 92.042 555.941 92.277 555.848 92.5615C555.755 92.846 555.709 93.18 555.709 93.5635V99H553.148V89.064ZM469.3 124L466.257 114.064H469.114L470.896 120.901L472.723 114.064H475.534L472.51 124H469.3ZM478.948 119.918C478.992 120.215 479.084 120.487 479.227 120.734C479.375 120.982 479.561 121.195 479.783 121.375C480.006 121.548 480.263 121.684 480.553 121.783C480.844 121.882 481.153 121.931 481.481 121.931C481.858 121.931 482.266 121.86 482.706 121.718C483.145 121.569 483.547 121.356 483.912 121.078L485.146 122.877C484.682 123.267 484.113 123.583 483.439 123.824C482.764 124.065 482.047 124.186 481.286 124.186C480.6 124.186 479.953 124.068 479.347 123.833C478.741 123.598 478.209 123.258 477.752 122.812C477.3 122.367 476.941 121.826 476.675 121.189C476.416 120.552 476.286 119.834 476.286 119.037C476.286 118.307 476.4 117.626 476.629 116.996C476.864 116.365 477.189 115.817 477.603 115.354C478.024 114.89 478.525 114.528 479.106 114.268C479.687 114.002 480.331 113.869 481.036 113.869C481.691 113.869 482.301 113.99 482.863 114.231C483.426 114.466 483.915 114.8 484.329 115.233C484.744 115.66 485.068 116.173 485.303 116.773C485.538 117.373 485.656 118.035 485.656 118.758V119.918H478.948ZM481.026 116.096C480.476 116.096 480.009 116.281 479.626 116.652C479.248 117.017 479.029 117.459 478.967 117.979H482.975C482.962 117.453 482.771 117.008 482.399 116.643C482.028 116.278 481.571 116.096 481.026 116.096ZM492.874 116.55H492.605C492.24 116.55 491.89 116.587 491.556 116.662C491.228 116.736 490.938 116.872 490.684 117.07C490.431 117.262 490.226 117.528 490.072 117.868C489.923 118.208 489.849 118.644 489.849 119.176V124H487.289V114.064H489.849V115.187C489.954 115.02 490.09 114.859 490.257 114.704C490.424 114.549 490.619 114.413 490.842 114.296C491.065 114.172 491.315 114.073 491.593 113.999C491.872 113.925 492.172 113.888 492.493 113.888H492.874V116.55ZM497.03 124H494.469V114.064H497.03V124ZM494.2 111.457C494.2 111.247 494.24 111.049 494.321 110.863C494.401 110.672 494.51 110.508 494.646 110.372C494.788 110.229 494.952 110.118 495.137 110.038C495.323 109.957 495.524 109.917 495.74 109.917C495.951 109.917 496.148 109.957 496.334 110.038C496.526 110.118 496.69 110.229 496.826 110.372C496.968 110.508 497.079 110.672 497.16 110.863C497.24 111.049 497.28 111.247 497.28 111.457C497.28 111.674 497.24 111.875 497.16 112.06C497.079 112.246 496.968 112.41 496.826 112.552C496.69 112.688 496.526 112.796 496.334 112.876C496.148 112.957 495.951 112.997 495.74 112.997C495.524 112.997 495.323 112.957 495.137 112.876C494.952 112.796 494.788 112.688 494.646 112.552C494.51 112.41 494.401 112.246 494.321 112.06C494.24 111.875 494.2 111.674 494.2 111.457ZM502.67 114.064H504.572V116.291H502.67V124H500.11V116.291H498.533V114.064H500.11V112.849C500.11 112.416 500.184 112.042 500.333 111.726C500.481 111.404 500.685 111.142 500.945 110.938C501.211 110.727 501.526 110.573 501.891 110.474C502.262 110.368 502.67 110.316 503.116 110.316C503.338 110.316 503.555 110.322 503.765 110.334C503.975 110.347 504.17 110.359 504.35 110.372C504.529 110.384 504.687 110.399 504.823 110.418C504.965 110.437 505.073 110.449 505.148 110.455L504.934 112.635C504.86 112.623 504.767 112.611 504.656 112.598C504.551 112.586 504.439 112.576 504.322 112.57C504.204 112.558 504.09 112.552 503.979 112.552C503.867 112.546 503.768 112.542 503.682 112.542C503.317 112.542 503.057 112.614 502.902 112.756C502.748 112.892 502.67 113.068 502.67 113.285V114.064ZM508.608 124H506.047V114.064H508.608V124ZM505.778 111.457C505.778 111.247 505.819 111.049 505.899 110.863C505.979 110.672 506.088 110.508 506.224 110.372C506.366 110.229 506.53 110.118 506.715 110.038C506.901 109.957 507.102 109.917 507.318 109.917C507.529 109.917 507.727 109.957 507.912 110.038C508.104 110.118 508.268 110.229 508.404 110.372C508.546 110.508 508.657 110.672 508.738 110.863C508.818 111.049 508.858 111.247 508.858 111.457C508.858 111.674 508.818 111.875 508.738 112.06C508.657 112.246 508.546 112.41 508.404 112.552C508.268 112.688 508.104 112.796 507.912 112.876C507.727 112.957 507.529 112.997 507.318 112.997C507.102 112.997 506.901 112.957 506.715 112.876C506.53 112.796 506.366 112.688 506.224 112.552C506.088 112.41 505.979 112.246 505.899 112.06C505.819 111.875 505.778 111.674 505.778 111.457ZM512.94 119.083C512.94 119.405 512.984 119.729 513.07 120.057C513.157 120.379 513.29 120.669 513.469 120.929C513.649 121.189 513.878 121.402 514.156 121.569C514.44 121.73 514.777 121.811 515.167 121.811C515.421 121.811 515.649 121.777 515.854 121.708C516.064 121.64 516.249 121.548 516.41 121.43C516.577 121.306 516.723 121.164 516.846 121.003C516.976 120.836 517.087 120.657 517.18 120.465L519.425 121.625C519.265 122.015 519.042 122.367 518.757 122.683C518.479 122.998 518.154 123.267 517.783 123.49C517.412 123.712 517.001 123.882 516.549 124C516.098 124.124 515.619 124.186 515.111 124.186C514.412 124.186 513.769 124.056 513.182 123.796C512.594 123.53 512.087 123.168 511.66 122.71C511.233 122.253 510.899 121.712 510.658 121.087C510.417 120.456 510.296 119.773 510.296 119.037C510.296 118.307 510.417 117.626 510.658 116.996C510.899 116.365 511.233 115.817 511.66 115.354C512.087 114.89 512.594 114.528 513.182 114.268C513.769 114.002 514.412 113.869 515.111 113.869C515.619 113.869 516.098 113.931 516.549 114.055C517.001 114.172 517.412 114.345 517.783 114.574C518.154 114.797 518.479 115.066 518.757 115.381C519.042 115.697 519.265 116.049 519.425 116.439L517.18 117.599C517.087 117.407 516.976 117.231 516.846 117.07C516.723 116.903 516.577 116.761 516.41 116.643C516.249 116.519 516.064 116.424 515.854 116.355C515.649 116.281 515.421 116.244 515.167 116.244C514.777 116.244 514.44 116.328 514.156 116.495C513.878 116.655 513.649 116.869 513.469 117.135C513.29 117.395 513.157 117.688 513.07 118.016C512.984 118.344 512.94 118.672 512.94 119V119.083ZM524.212 119.964C523.897 120.014 523.643 120.125 523.452 120.298C523.26 120.465 523.164 120.694 523.164 120.985C523.164 121.306 523.282 121.585 523.517 121.82C523.752 122.049 524.098 122.163 524.556 122.163C525.038 122.163 525.419 122.024 525.697 121.746C525.975 121.467 526.114 121.099 526.114 120.642V119.64L524.212 119.964ZM526.532 123.063C526.427 123.181 526.297 123.307 526.142 123.443C525.994 123.573 525.814 123.694 525.604 123.805C525.4 123.91 525.159 124 524.88 124.074C524.602 124.148 524.29 124.186 523.943 124.186C523.449 124.186 522.991 124.108 522.57 123.954C522.156 123.793 521.791 123.57 521.476 123.286C521.16 123.001 520.913 122.673 520.733 122.302C520.554 121.925 520.464 121.517 520.464 121.078C520.464 120.28 520.712 119.627 521.207 119.12C521.701 118.613 522.385 118.294 523.257 118.165L526.114 117.747V117.562C526.114 117.116 525.978 116.764 525.706 116.504C525.434 116.244 524.992 116.114 524.379 116.114C524.126 116.114 523.869 116.145 523.609 116.207C523.35 116.263 523.099 116.328 522.858 116.402C522.623 116.476 522.403 116.563 522.199 116.662C521.995 116.754 521.816 116.838 521.661 116.912L520.659 114.955C521.228 114.639 521.859 114.379 522.552 114.175C523.251 113.971 523.974 113.869 524.723 113.869C525.18 113.869 525.641 113.919 526.105 114.018C526.575 114.11 526.999 114.284 527.376 114.537C527.76 114.791 528.072 115.137 528.313 115.576C528.554 116.009 528.675 116.563 528.675 117.237V121.319C528.675 121.61 528.749 121.826 528.898 121.968C529.052 122.104 529.262 122.231 529.528 122.349L528.369 124.186C527.899 124.136 527.521 124.015 527.237 123.824C526.952 123.626 526.717 123.372 526.532 123.063ZM534.093 121.041C534.093 121.158 534.108 121.269 534.139 121.375C534.17 121.48 534.223 121.572 534.297 121.653C534.377 121.727 534.489 121.786 534.631 121.829C534.773 121.872 534.956 121.894 535.178 121.894C535.271 121.894 535.376 121.891 535.494 121.885C535.611 121.872 535.729 121.86 535.846 121.848C535.964 121.835 536.072 121.82 536.171 121.801C536.276 121.783 536.363 121.767 536.431 121.755L536.663 124.019C536.421 124.049 536.171 124.077 535.911 124.102C535.689 124.127 535.441 124.145 535.169 124.158C534.897 124.176 534.622 124.186 534.343 124.186C533.459 124.186 532.769 123.985 532.274 123.583C531.78 123.181 531.532 122.54 531.532 121.662V116.291H529.742V114.064H531.532V111.253L534.093 110.566V114.064H536.7V116.291H534.093V121.041ZM540.875 124H538.314V114.064H540.875V124ZM538.045 111.457C538.045 111.247 538.085 111.049 538.166 110.863C538.246 110.672 538.354 110.508 538.49 110.372C538.633 110.229 538.796 110.118 538.982 110.038C539.168 109.957 539.369 109.917 539.585 109.917C539.795 109.917 539.993 109.957 540.179 110.038C540.371 110.118 540.534 110.229 540.67 110.372C540.813 110.508 540.924 110.672 541.004 110.863C541.085 111.049 541.125 111.247 541.125 111.457C541.125 111.674 541.085 111.875 541.004 112.06C540.924 112.246 540.813 112.41 540.67 112.552C540.534 112.688 540.371 112.796 540.179 112.876C539.993 112.957 539.795 112.997 539.585 112.997C539.369 112.997 539.168 112.957 538.982 112.876C538.796 112.796 538.633 112.688 538.49 112.552C538.354 112.41 538.246 112.246 538.166 112.06C538.085 111.875 538.045 111.674 538.045 111.457ZM547.452 113.869C548.188 113.869 548.856 114.002 549.456 114.268C550.056 114.528 550.569 114.89 550.996 115.354C551.423 115.817 551.751 116.365 551.98 116.996C552.215 117.626 552.332 118.307 552.332 119.037C552.332 119.773 552.215 120.456 551.98 121.087C551.745 121.712 551.414 122.253 550.987 122.71C550.56 123.168 550.047 123.53 549.447 123.796C548.847 124.056 548.182 124.186 547.452 124.186C546.716 124.186 546.048 124.056 545.448 123.796C544.848 123.53 544.335 123.168 543.908 122.71C543.482 122.253 543.151 121.712 542.916 121.087C542.681 120.456 542.563 119.773 542.563 119.037C542.563 118.307 542.677 117.626 542.906 116.996C543.141 116.365 543.472 115.817 543.899 115.354C544.326 114.89 544.839 114.528 545.439 114.268C546.045 114.002 546.716 113.869 547.452 113.869ZM547.452 121.811C547.817 121.811 548.139 121.743 548.417 121.606C548.702 121.47 548.94 121.282 549.131 121.041C549.323 120.799 549.468 120.512 549.567 120.178C549.666 119.838 549.716 119.466 549.716 119.064V119C549.716 118.597 549.666 118.229 549.567 117.896C549.468 117.555 549.323 117.265 549.131 117.023C548.94 116.776 548.702 116.584 548.417 116.448C548.139 116.312 547.817 116.244 547.452 116.244C547.087 116.244 546.763 116.312 546.478 116.448C546.2 116.584 545.965 116.776 545.773 117.023C545.581 117.265 545.436 117.555 545.337 117.896C545.238 118.229 545.189 118.597 545.189 119V119.064C545.189 119.466 545.238 119.838 545.337 120.178C545.436 120.512 545.581 120.799 545.773 121.041C545.965 121.282 546.2 121.47 546.478 121.606C546.763 121.743 547.087 121.811 547.452 121.811ZM554.03 114.064H556.59V114.917C556.726 114.781 556.878 114.652 557.045 114.528C557.218 114.398 557.407 114.287 557.611 114.194C557.815 114.095 558.041 114.018 558.288 113.962C558.542 113.9 558.82 113.869 559.123 113.869C559.661 113.869 560.144 113.959 560.57 114.138C560.997 114.311 561.356 114.553 561.647 114.862C561.943 115.171 562.169 115.533 562.324 115.947C562.478 116.362 562.556 116.81 562.556 117.292V124H559.995V118.22C559.995 117.868 559.955 117.571 559.875 117.33C559.794 117.082 559.683 116.884 559.541 116.736C559.405 116.581 559.241 116.47 559.049 116.402C558.863 116.328 558.659 116.291 558.437 116.291C558.177 116.291 557.933 116.337 557.704 116.43C557.481 116.522 557.286 116.665 557.119 116.856C556.952 117.042 556.822 117.277 556.73 117.562C556.637 117.846 556.59 118.18 556.59 118.563V124H554.03V114.064Z" fill="black"/>
    <path d="M700.876 93.3965H695.022V99H692.332V85.6963H695.022V90.9658H700.876V85.6963H703.576V99H700.876V93.3965ZM710.441 88.8691C711.177 88.8691 711.845 89.0021 712.445 89.2681C713.045 89.5278 713.558 89.8896 713.985 90.3535C714.412 90.8174 714.739 91.3647 714.968 91.9956C715.203 92.6265 715.321 93.3068 715.321 94.0366C715.321 94.7726 715.203 95.4561 714.968 96.0869C714.733 96.7116 714.402 97.2528 713.976 97.7104C713.549 98.1681 713.036 98.5299 712.436 98.7959C711.836 99.0557 711.171 99.1855 710.441 99.1855C709.705 99.1855 709.037 99.0557 708.437 98.7959C707.837 98.5299 707.324 98.1681 706.897 97.7104C706.47 97.2528 706.139 96.7116 705.904 96.0869C705.669 95.4561 705.552 94.7726 705.552 94.0366C705.552 93.3068 705.666 92.6265 705.895 91.9956C706.13 91.3647 706.461 90.8174 706.888 90.3535C707.315 89.8896 707.828 89.5278 708.428 89.2681C709.034 89.0021 709.705 88.8691 710.441 88.8691ZM710.441 96.8105C710.806 96.8105 711.128 96.7425 711.406 96.6064C711.69 96.4704 711.928 96.2817 712.12 96.0405C712.312 95.7993 712.457 95.5117 712.556 95.1777C712.655 94.8376 712.705 94.4665 712.705 94.0645V93.9995C712.705 93.5975 712.655 93.2295 712.556 92.8955C712.457 92.5553 712.312 92.2646 712.12 92.0234C711.928 91.776 711.69 91.5843 711.406 91.4482C711.128 91.3122 710.806 91.2441 710.441 91.2441C710.076 91.2441 709.751 91.3122 709.467 91.4482C709.189 91.5843 708.954 91.776 708.762 92.0234C708.57 92.2646 708.425 92.5553 708.326 92.8955C708.227 93.2295 708.177 93.5975 708.177 93.9995V94.0645C708.177 94.4665 708.227 94.8376 708.326 95.1777C708.425 95.5117 708.57 95.7993 708.762 96.0405C708.954 96.2817 709.189 96.4704 709.467 96.6064C709.751 96.7425 710.076 96.8105 710.441 96.8105ZM725.396 99H722.826V93.2202C722.826 92.8677 722.786 92.5708 722.706 92.3296C722.631 92.0822 722.526 91.8843 722.39 91.7358C722.254 91.5812 722.096 91.473 721.917 91.4111C721.738 91.3431 721.543 91.3091 721.333 91.3091C721.085 91.3091 720.853 91.3524 720.637 91.439C720.426 91.5256 720.241 91.6616 720.08 91.8472C719.926 92.0327 719.802 92.2708 719.709 92.5615C719.622 92.846 719.579 93.1862 719.579 93.582V99H717.019V89.064H719.579V89.936C719.907 89.5711 720.287 89.3021 720.72 89.1289C721.159 88.9557 721.629 88.8691 722.13 88.8691C722.644 88.8691 723.123 88.9743 723.568 89.1846C724.02 89.3949 724.394 89.7412 724.691 90.2236C724.864 89.9762 725.062 89.766 725.285 89.5928C725.514 89.4196 725.758 89.2804 726.018 89.1753C726.277 89.0701 726.546 88.9928 726.825 88.9434C727.109 88.8939 727.4 88.8691 727.697 88.8691C728.253 88.8691 728.748 88.9619 729.181 89.1475C729.62 89.3268 729.991 89.5711 730.294 89.8804C730.598 90.1896 730.829 90.5452 730.99 90.9473C731.151 91.3493 731.232 91.7729 731.232 92.2183V99H728.643V93.2202C728.643 92.8677 728.603 92.5708 728.523 92.3296C728.448 92.0822 728.343 91.8843 728.207 91.7358C728.071 91.5812 727.91 91.473 727.725 91.4111C727.545 91.3431 727.35 91.3091 727.14 91.3091C726.893 91.3091 726.664 91.3524 726.454 91.439C726.243 91.5256 726.058 91.6616 725.897 91.8472C725.742 92.0327 725.619 92.2708 725.526 92.5615C725.439 92.846 725.396 93.1862 725.396 93.582V99ZM735.508 94.918C735.552 95.2148 735.644 95.487 735.787 95.7344C735.935 95.9818 736.121 96.1951 736.343 96.3745C736.566 96.5477 736.823 96.6838 737.113 96.7827C737.404 96.8817 737.713 96.9312 738.041 96.9312C738.418 96.9312 738.827 96.86 739.266 96.7178C739.705 96.5693 740.107 96.356 740.472 96.0776L741.706 97.8774C741.242 98.2671 740.673 98.5825 739.999 98.8237C739.324 99.0649 738.607 99.1855 737.846 99.1855C737.16 99.1855 736.513 99.068 735.907 98.833C735.301 98.598 734.769 98.2578 734.312 97.8125C733.86 97.3672 733.501 96.826 733.235 96.189C732.976 95.5519 732.846 94.8345 732.846 94.0366C732.846 93.3068 732.96 92.6265 733.189 91.9956C733.424 91.3647 733.749 90.8174 734.163 90.3535C734.584 89.8896 735.085 89.5278 735.666 89.2681C736.247 89.0021 736.891 88.8691 737.596 88.8691C738.251 88.8691 738.861 88.9897 739.423 89.231C739.986 89.466 740.475 89.8 740.889 90.2329C741.304 90.6597 741.628 91.173 741.863 91.7729C742.098 92.3729 742.216 93.0347 742.216 93.7583V94.918H735.508ZM737.586 91.0957C737.036 91.0957 736.569 91.2812 736.186 91.6523C735.808 92.0173 735.589 92.4595 735.527 92.979H739.535C739.522 92.4533 739.331 92.008 738.96 91.6431C738.588 91.2782 738.131 91.0957 737.586 91.0957ZM657.087 110.696H659.777V124H657.087V110.696ZM670.65 124H668.081V118.22C668.081 117.868 668.04 117.571 667.96 117.33C667.886 117.082 667.781 116.884 667.645 116.736C667.509 116.581 667.351 116.473 667.171 116.411C666.992 116.343 666.797 116.309 666.587 116.309C666.34 116.309 666.108 116.352 665.891 116.439C665.681 116.526 665.495 116.662 665.335 116.847C665.18 117.033 665.056 117.271 664.963 117.562C664.877 117.846 664.834 118.186 664.834 118.582V124H662.273V114.064H664.834V114.936C665.161 114.571 665.542 114.302 665.975 114.129C666.414 113.956 666.884 113.869 667.385 113.869C667.898 113.869 668.378 113.974 668.823 114.185C669.274 114.395 669.648 114.741 669.945 115.224C670.119 114.976 670.316 114.766 670.539 114.593C670.768 114.42 671.012 114.28 671.272 114.175C671.532 114.07 671.801 113.993 672.079 113.943C672.364 113.894 672.654 113.869 672.951 113.869C673.508 113.869 674.003 113.962 674.436 114.147C674.875 114.327 675.246 114.571 675.549 114.88C675.852 115.19 676.084 115.545 676.245 115.947C676.405 116.349 676.486 116.773 676.486 117.218V124H673.898V118.22C673.898 117.868 673.857 117.571 673.777 117.33C673.703 117.082 673.598 116.884 673.461 116.736C673.325 116.581 673.165 116.473 672.979 116.411C672.8 116.343 672.605 116.309 672.395 116.309C672.147 116.309 671.918 116.352 671.708 116.439C671.498 116.526 671.312 116.662 671.151 116.847C670.997 117.033 670.873 117.271 670.78 117.562C670.694 117.846 670.65 118.186 670.65 118.582V124ZM681.18 127.136H678.62V114.064H681.18V114.917C681.459 114.627 681.802 114.379 682.21 114.175C682.618 113.971 683.113 113.869 683.694 113.869C684.35 113.869 684.944 114.002 685.476 114.268C686.014 114.528 686.475 114.89 686.858 115.354C687.241 115.811 687.538 116.355 687.749 116.986C687.959 117.617 688.064 118.301 688.064 119.037C688.064 119.773 687.956 120.456 687.739 121.087C687.523 121.718 687.22 122.262 686.83 122.72C686.44 123.177 685.974 123.536 685.429 123.796C684.885 124.056 684.285 124.186 683.629 124.186C683.339 124.186 683.073 124.158 682.832 124.102C682.597 124.053 682.38 123.981 682.182 123.889C681.984 123.796 681.802 123.688 681.635 123.564C681.468 123.434 681.316 123.295 681.18 123.146V127.136ZM681.106 119.955C681.106 120.221 681.152 120.468 681.245 120.697C681.344 120.92 681.483 121.115 681.663 121.282C681.842 121.449 682.055 121.579 682.303 121.671C682.556 121.764 682.841 121.811 683.156 121.811C683.521 121.811 683.843 121.746 684.121 121.616C684.406 121.48 684.644 121.291 684.836 121.05C685.027 120.809 685.173 120.524 685.272 120.196C685.371 119.862 685.42 119.497 685.42 119.102V118.981C685.42 118.585 685.371 118.22 685.272 117.886C685.173 117.552 685.027 117.265 684.836 117.023C684.644 116.776 684.406 116.584 684.121 116.448C683.843 116.312 683.521 116.244 683.156 116.244C682.841 116.244 682.556 116.291 682.303 116.383C682.055 116.476 681.842 116.606 681.663 116.773C681.483 116.94 681.344 117.138 681.245 117.367C681.152 117.596 681.106 117.843 681.106 118.109V119.955ZM695.356 116.55H695.087C694.722 116.55 694.373 116.587 694.039 116.662C693.711 116.736 693.42 116.872 693.167 117.07C692.913 117.262 692.709 117.528 692.554 117.868C692.406 118.208 692.332 118.644 692.332 119.176V124H689.771V114.064H692.332V115.187C692.437 115.02 692.573 114.859 692.74 114.704C692.907 114.549 693.102 114.413 693.324 114.296C693.547 114.172 693.797 114.073 694.076 113.999C694.354 113.925 694.654 113.888 694.976 113.888H695.356V116.55ZM701.321 113.869C702.057 113.869 702.725 114.002 703.325 114.268C703.925 114.528 704.439 114.89 704.865 115.354C705.292 115.817 705.62 116.365 705.849 116.996C706.084 117.626 706.201 118.307 706.201 119.037C706.201 119.773 706.084 120.456 705.849 121.087C705.614 121.712 705.283 122.253 704.856 122.71C704.429 123.168 703.916 123.53 703.316 123.796C702.716 124.056 702.051 124.186 701.321 124.186C700.585 124.186 699.917 124.056 699.317 123.796C698.718 123.53 698.204 123.168 697.777 122.71C697.351 122.253 697.02 121.712 696.785 121.087C696.55 120.456 696.432 119.773 696.432 119.037C696.432 118.307 696.547 117.626 696.775 116.996C697.01 116.365 697.341 115.817 697.768 115.354C698.195 114.89 698.708 114.528 699.308 114.268C699.914 114.002 700.585 113.869 701.321 113.869ZM701.321 121.811C701.686 121.811 702.008 121.743 702.286 121.606C702.571 121.47 702.809 121.282 703.001 121.041C703.192 120.799 703.338 120.512 703.437 120.178C703.536 119.838 703.585 119.466 703.585 119.064V119C703.585 118.597 703.536 118.229 703.437 117.896C703.338 117.555 703.192 117.265 703.001 117.023C702.809 116.776 702.571 116.584 702.286 116.448C702.008 116.312 701.686 116.244 701.321 116.244C700.956 116.244 700.632 116.312 700.347 116.448C700.069 116.584 699.834 116.776 699.642 117.023C699.45 117.265 699.305 117.555 699.206 117.896C699.107 118.229 699.058 118.597 699.058 119V119.064C699.058 119.466 699.107 119.838 699.206 120.178C699.305 120.512 699.45 120.799 699.642 121.041C699.834 121.282 700.069 121.47 700.347 121.606C700.632 121.743 700.956 121.811 701.321 121.811ZM710.005 124L706.962 114.064H709.819L711.601 120.901L713.428 114.064H716.239L713.215 124H710.005ZM719.653 119.918C719.697 120.215 719.789 120.487 719.932 120.734C720.08 120.982 720.266 121.195 720.488 121.375C720.711 121.548 720.968 121.684 721.258 121.783C721.549 121.882 721.858 121.931 722.186 121.931C722.563 121.931 722.972 121.86 723.411 121.718C723.85 121.569 724.252 121.356 724.617 121.078L725.851 122.877C725.387 123.267 724.818 123.583 724.144 123.824C723.469 124.065 722.752 124.186 721.991 124.186C721.305 124.186 720.658 124.068 720.052 123.833C719.446 123.598 718.914 123.258 718.457 122.812C718.005 122.367 717.646 121.826 717.38 121.189C717.121 120.552 716.991 119.834 716.991 119.037C716.991 118.307 717.105 117.626 717.334 116.996C717.569 116.365 717.894 115.817 718.308 115.354C718.729 114.89 719.23 114.528 719.811 114.268C720.392 114.002 721.036 113.869 721.741 113.869C722.396 113.869 723.006 113.99 723.568 114.231C724.131 114.466 724.62 114.8 725.034 115.233C725.449 115.66 725.773 116.173 726.008 116.773C726.243 117.373 726.361 118.035 726.361 118.758V119.918H719.653ZM721.732 116.096C721.181 116.096 720.714 116.281 720.331 116.652C719.953 117.017 719.734 117.459 719.672 117.979H723.68C723.667 117.453 723.476 117.008 723.105 116.643C722.733 116.278 722.276 116.096 721.732 116.096ZM736.371 124H733.801V118.22C733.801 117.868 733.761 117.571 733.681 117.33C733.607 117.082 733.501 116.884 733.365 116.736C733.229 116.581 733.072 116.473 732.892 116.411C732.713 116.343 732.518 116.309 732.308 116.309C732.06 116.309 731.828 116.352 731.612 116.439C731.402 116.526 731.216 116.662 731.055 116.847C730.901 117.033 730.777 117.271 730.684 117.562C730.598 117.846 730.554 118.186 730.554 118.582V124H727.994V114.064H730.554V114.936C730.882 114.571 731.262 114.302 731.695 114.129C732.135 113.956 732.605 113.869 733.106 113.869C733.619 113.869 734.098 113.974 734.544 114.185C734.995 114.395 735.369 114.741 735.666 115.224C735.839 114.976 736.037 114.766 736.26 114.593C736.489 114.42 736.733 114.28 736.993 114.175C737.253 114.07 737.522 113.993 737.8 113.943C738.084 113.894 738.375 113.869 738.672 113.869C739.229 113.869 739.723 113.962 740.156 114.147C740.595 114.327 740.967 114.571 741.27 114.88C741.573 115.19 741.805 115.545 741.965 115.947C742.126 116.349 742.207 116.773 742.207 117.218V124H739.618V118.22C739.618 117.868 739.578 117.571 739.498 117.33C739.423 117.082 739.318 116.884 739.182 116.736C739.046 116.581 738.885 116.473 738.7 116.411C738.52 116.343 738.326 116.309 738.115 116.309C737.868 116.309 737.639 116.352 737.429 116.439C737.218 116.526 737.033 116.662 736.872 116.847C736.718 117.033 736.594 117.271 736.501 117.562C736.414 117.846 736.371 118.186 736.371 118.582V124ZM746.483 119.918C746.527 120.215 746.62 120.487 746.762 120.734C746.91 120.982 747.096 121.195 747.318 121.375C747.541 121.548 747.798 121.684 748.088 121.783C748.379 121.882 748.688 121.931 749.016 121.931C749.393 121.931 749.802 121.86 750.241 121.718C750.68 121.569 751.082 121.356 751.447 121.078L752.681 122.877C752.217 123.267 751.648 123.583 750.974 123.824C750.3 124.065 749.582 124.186 748.821 124.186C748.135 124.186 747.489 124.068 746.882 123.833C746.276 123.598 745.744 123.258 745.287 122.812C744.835 122.367 744.476 121.826 744.211 121.189C743.951 120.552 743.821 119.834 743.821 119.037C743.821 118.307 743.935 117.626 744.164 116.996C744.399 116.365 744.724 115.817 745.138 115.354C745.559 114.89 746.06 114.528 746.641 114.268C747.223 114.002 747.866 113.869 748.571 113.869C749.226 113.869 749.836 113.99 750.398 114.231C750.961 114.466 751.45 114.8 751.864 115.233C752.279 115.66 752.603 116.173 752.838 116.773C753.073 117.373 753.191 118.035 753.191 118.758V119.918H746.483ZM748.562 116.096C748.011 116.096 747.544 116.281 747.161 116.652C746.783 117.017 746.564 117.459 746.502 117.979H750.51C750.497 117.453 750.306 117.008 749.935 116.643C749.564 116.278 749.106 116.096 748.562 116.096ZM754.824 114.064H757.384V114.917C757.52 114.781 757.672 114.652 757.839 114.528C758.012 114.398 758.201 114.287 758.405 114.194C758.609 114.095 758.835 114.018 759.082 113.962C759.336 113.9 759.614 113.869 759.917 113.869C760.455 113.869 760.938 113.959 761.364 114.138C761.791 114.311 762.15 114.553 762.44 114.862C762.737 115.171 762.963 115.533 763.118 115.947C763.272 116.362 763.35 116.81 763.35 117.292V124H760.789V118.22C760.789 117.868 760.749 117.571 760.669 117.33C760.588 117.082 760.477 116.884 760.335 116.736C760.198 116.581 760.035 116.47 759.843 116.402C759.657 116.328 759.453 116.291 759.231 116.291C758.971 116.291 758.726 116.337 758.498 116.43C758.275 116.522 758.08 116.665 757.913 116.856C757.746 117.042 757.616 117.277 757.523 117.562C757.431 117.846 757.384 118.18 757.384 118.563V124H754.824V114.064ZM769.157 121.041C769.157 121.158 769.173 121.269 769.204 121.375C769.235 121.48 769.287 121.572 769.361 121.653C769.442 121.727 769.553 121.786 769.695 121.829C769.838 121.872 770.02 121.894 770.243 121.894C770.336 121.894 770.441 121.891 770.558 121.885C770.676 121.872 770.793 121.86 770.911 121.848C771.028 121.835 771.136 121.82 771.235 121.801C771.341 121.783 771.427 121.767 771.495 121.755L771.727 124.019C771.486 124.049 771.235 124.077 770.976 124.102C770.753 124.127 770.506 124.145 770.233 124.158C769.961 124.176 769.686 124.186 769.408 124.186C768.523 124.186 767.834 123.985 767.339 123.583C766.844 123.181 766.597 122.54 766.597 121.662V116.291H764.806V114.064H766.597V111.253L769.157 110.566V114.064H771.764V116.291H769.157V121.041ZM774.084 120.827C774.448 121.155 774.885 121.436 775.392 121.671C775.899 121.906 776.412 122.024 776.932 122.024C777.309 122.024 777.606 121.953 777.822 121.811C778.039 121.662 778.147 121.473 778.147 121.245C778.147 120.855 777.73 120.552 776.895 120.335L776.171 120.141C775.812 120.054 775.45 119.937 775.086 119.788C774.721 119.633 774.384 119.432 774.074 119.185C773.771 118.938 773.524 118.638 773.332 118.285C773.147 117.926 773.054 117.487 773.054 116.968C773.054 116.553 773.143 116.161 773.323 115.79C773.508 115.412 773.768 115.081 774.102 114.797C774.442 114.512 774.854 114.287 775.336 114.12C775.818 113.953 776.357 113.869 776.95 113.869C777.798 113.869 778.552 114.002 779.214 114.268C779.882 114.534 780.408 114.834 780.791 115.168L779.455 116.875C779.14 116.646 778.766 116.451 778.333 116.291C777.906 116.124 777.476 116.04 777.043 116.04C776.641 116.04 776.329 116.114 776.106 116.263C775.883 116.405 775.772 116.578 775.772 116.782C775.772 116.999 775.868 117.175 776.06 117.311C776.258 117.441 776.542 117.555 776.913 117.654L777.989 117.96C779.016 118.251 779.752 118.644 780.197 119.139C780.643 119.633 780.865 120.258 780.865 121.013C780.865 121.433 780.779 121.835 780.606 122.219C780.432 122.596 780.179 122.933 779.845 123.23C779.511 123.527 779.096 123.762 778.602 123.935C778.107 124.102 777.544 124.186 776.913 124.186C776.431 124.186 775.976 124.142 775.549 124.056C775.129 123.969 774.736 123.852 774.371 123.703C774.012 123.549 773.688 123.375 773.397 123.184C773.106 122.992 772.859 122.8 772.655 122.608L774.084 120.827Z" fill="black"/>
    <path d="M116.049 34.8789L747.171 35.001" stroke="#00703C" stroke-width="8"/>
    <circle cx="111.293" cy="34.8783" r="30.122" fill="#00703C"/>
    <path d="M125.748 26.0002L106.658 44.8661L97 35.4332" stroke="white" stroke-width="8.98374" stroke-linecap="round"/>
    <circle cx="313.293" cy="35.122" r="26.122" fill="#CCE2D8" stroke="#00703C" stroke-width="8"/>
    <circle cx="515.293" cy="35.122" r="26.122" fill="white" stroke="#00703C" stroke-width="8"/>
    <circle cx="717.293" cy="35.122" r="26.122" fill="white" stroke="#00703C" stroke-width="8"/>
</svg>
