<svg width="283" height="368" viewBox="0 0 283 368" fill="none" xmlns="http://www.w3.org/2000/svg">
<g clip-path="url(#clip0_102_1324)">
<path d="M245.008 13.3737H119.745V250.526H245.008V13.3737Z" fill="white" stroke="black" stroke-miterlimit="10"/>
<path d="M119.745 250.526L92.5557 327.268" stroke="black" stroke-miterlimit="10"/>
<path d="M73.3683 0.626343V341.047H282.632V0.626343H73.3683ZM271.601 328.005H84.3989V14.1105H271.608V328.005H271.601Z" fill="#D6D6D6" stroke="black" stroke-miterlimit="10" stroke-linecap="square"/>
<path d="M245.008 250.526L271.601 328.374" stroke="black" stroke-miterlimit="10"/>
<path d="M226.816 166.733V166.593C226.632 106.547 137.798 106.43 137.798 166.593V274.179C137.798 282.306 157.722 288.894 182.31 288.894C206.899 288.894 226.823 282.306 226.823 274.179V166.733H226.816Z" fill="url(#paint0_linear_102_1324)" stroke="black" stroke-miterlimit="10"/>
<path opacity="0.2118" d="M138.129 160.573C138.129 155.908 226.912 155.923 226.956 160.58C226.956 160.58 195.552 160.263 183.497 160.263C172.312 160.263 138.129 160.573 138.129 160.573Z" fill="#559CC2"/>
<path d="M182.311 275.726C184.357 275.726 186.017 274.12 186.017 272.138C186.017 270.156 184.357 268.549 182.311 268.549C180.264 268.549 178.604 270.156 178.604 272.138C178.604 274.12 180.264 275.726 182.311 275.726Z" fill="black" stroke="#518AA8" stroke-width="3" stroke-miterlimit="10"/>
<path d="M182.311 243.165C184.357 243.165 186.017 241.559 186.017 239.577C186.017 237.595 184.357 235.988 182.311 235.988C180.264 235.988 178.604 237.595 178.604 239.577C178.604 241.559 180.264 243.165 182.311 243.165Z" fill="black" stroke="#518AA8" stroke-width="3" stroke-miterlimit="10"/>
<path d="M182.311 132.381C185.285 132.381 187.697 130.507 187.697 128.196C187.697 125.884 185.285 124.011 182.311 124.011C179.336 124.011 176.924 125.884 176.924 128.196C176.924 130.507 179.336 132.381 182.311 132.381Z" fill="black" stroke="#5199C0" stroke-width="3" stroke-miterlimit="10"/>
<path d="M5.71889 367.795L3.9873 41.3442L97.7505 14.479V327.092L5.71889 367.795Z" fill="#D6D6D6" stroke="black" stroke-miterlimit="10"/>
<path d="M17.0147 218.702C20.7179 218.702 23.7199 215.68 23.7199 211.953C23.7199 208.225 20.7179 205.203 17.0147 205.203C13.3114 205.203 10.3094 208.225 10.3094 211.953C10.3094 215.68 13.3114 218.702 17.0147 218.702Z" fill="black" stroke="black" stroke-miterlimit="10"/>
<path d="M182.686 241.957H247.617V240.947V14.1105H242.4V236.747H182.723C180.807 236.747 179.835 237.867 179.835 239.245V239.459C179.842 240.837 180.763 241.957 182.686 241.957Z" fill="url(#paint1_linear_102_1324)" stroke="black" stroke-miterlimit="10"/>
<path d="M182.73 269.662C180.815 269.662 179.842 270.782 179.842 272.16V272.374C179.842 273.752 180.763 274.872 182.686 274.872L271.638 274.931L271.675 269.625L182.73 269.662Z" fill="url(#paint2_linear_102_1324)" stroke="black" stroke-miterlimit="10"/>
<path d="M186.009 14.1105H178.928V127.621C178.899 127.746 178.869 127.864 178.869 127.99C178.869 129.286 180.468 130.333 182.436 130.333C184.403 130.333 186.002 129.286 186.002 127.99C186.002 127.982 186.002 127.975 186.002 127.967H186.009V14.1105V14.1105Z" fill="url(#paint3_linear_102_1324)" stroke="black" stroke-miterlimit="10"/>
</g>
<defs>
<linearGradient id="paint0_linear_102_1324" x1="137.798" y1="205.205" x2="226.817" y2="205.205" gradientUnits="userSpaceOnUse">
<stop stop-color="#5098BF"/>
<stop offset="0.104" stop-color="#60A4CA"/>
<stop offset="0.3374" stop-color="#7DBADE"/>
<stop offset="0.5676" stop-color="#93CAEC"/>
<stop offset="0.791" stop-color="#A0D4F5"/>
<stop offset="1" stop-color="#A4D7F8"/>
</linearGradient>
<linearGradient id="paint1_linear_102_1324" x1="179.84" y1="128.031" x2="247.615" y2="128.031" gradientUnits="userSpaceOnUse">
<stop stop-color="#AD5924"/>
<stop offset="1" stop-color="#E3925F"/>
</linearGradient>
<linearGradient id="paint2_linear_102_1324" x1="179.84" y1="272.28" x2="271.669" y2="272.28" gradientUnits="userSpaceOnUse">
<stop stop-color="#AD5924"/>
<stop offset="1" stop-color="#E3925F"/>
</linearGradient>
<linearGradient id="paint3_linear_102_1324" x1="178.871" y1="72.2183" x2="186.011" y2="72.2183" gradientUnits="userSpaceOnUse">
<stop stop-color="#AE5B26"/>
<stop offset="1" stop-color="#E2905D"/>
</linearGradient>
<clipPath id="clip0_102_1324">
<rect width="283" height="368" fill="white"/>
</clipPath>
</defs>
</svg>
